<?xml version="1.0" encoding="UTF-8"?>
<!DOCTYPE svg PUBLIC "-//W3C//DTD SVG 1.1//EN" "http://www.w3.org/Graphics/SVG/1.1/DTD/svg11.dtd">
<svg xmlns="http://www.w3.org/2000/svg" version="1.1" width="1742px" height="1721px" style="shape-rendering:geometricPrecision; text-rendering:geometricPrecision; image-rendering:optimizeQuality; fill-rule:evenodd; clip-rule:evenodd" xmlns:xlink="http://www.w3.org/1999/xlink">
<g><path style="opacity:0.992" fill="#fefffe" d="M 447.5,80.5 C 473.833,80.5 500.167,80.5 526.5,80.5C 526.333,178.834 526.5,277.167 527,375.5C 551.09,335.184 586.59,312.017 633.5,306C 674.15,300.789 711.15,309.789 744.5,333C 777.278,360.384 795.445,395.551 799,438.5C 800.469,529.483 800.969,620.483 800.5,711.5C 774.167,711.5 747.833,711.5 721.5,711.5C 721.667,635.166 721.5,558.833 721,482.5C 720.874,460.41 716.874,439.077 709,418.5C 693.823,386.701 668.489,371.368 633,372.5C 596.359,372.651 568.026,387.984 548,418.5C 535.438,439.406 528.438,462.073 527,486.5C 526.5,561.499 526.333,636.499 526.5,711.5C 500.167,711.5 473.833,711.5 447.5,711.5C 447.5,501.167 447.5,290.833 447.5,80.5 Z"/></g>
<g><path style="opacity:0.99" fill="#fefffe" d="M 1352.5,81.5 C 1378.83,81.5 1405.17,81.5 1431.5,81.5C 1431.33,217.167 1431.5,352.834 1432,488.5C 1487.86,431.638 1543.36,374.471 1598.5,317C 1633.84,316.167 1669.17,316.333 1704.5,317.5C 1643.35,377.154 1582.01,436.654 1520.5,496C 1586.8,567.968 1653.47,639.634 1720.5,711C 1683.83,711.667 1647.17,711.667 1610.5,711C 1551,642.833 1491.5,574.667 1432,506.5C 1431.5,574.833 1431.33,643.166 1431.5,711.5C 1405.17,711.5 1378.83,711.5 1352.5,711.5C 1352.5,501.5 1352.5,291.5 1352.5,81.5 Z"/></g>
<g><path style="opacity:0.986" fill="#fefffe" d="M 228.5,305.5 C 279.52,301.198 326.52,312.698 369.5,340C 381.646,348.312 391.979,358.479 400.5,370.5C 382.115,386.385 363.282,401.718 344,416.5C 313.784,380.673 275.284,366.506 228.5,374C 179.801,385.361 147.635,414.861 132,462.5C 117.976,509.205 122.643,553.872 146,596.5C 175.522,640.838 217.022,660.338 270.5,655C 302.2,650.989 328.2,636.822 348.5,612.5C 365.851,628.352 383.351,644.019 401,659.5C 400.956,661.279 400.289,662.945 399,664.5C 368.409,696.712 330.909,715.546 286.5,721C 227.908,728.885 173.908,716.885 124.5,685C 72.4612,646.106 44.6279,593.94 41,528.5C 36.4262,459.861 58.9262,402.028 108.5,355C 143.503,326.496 183.503,309.996 228.5,305.5 Z"/></g>
<g><path style="opacity:0.991" fill="#fefffe" d="M 895.5,316.5 C 921.833,316.5 948.167,316.5 974.5,316.5C 974.333,395.167 974.5,473.834 975,552.5C 975.308,577.06 981.308,600.06 993,621.5C 1010.22,645.525 1033.72,656.858 1063.5,655.5C 1104,655.007 1133.83,637.007 1153,601.5C 1163.04,580.671 1168.37,558.671 1169,535.5C 1169.5,462.501 1169.67,389.501 1169.5,316.5C 1195.83,316.5 1222.17,316.5 1248.5,316.5C 1248.33,429.834 1248.5,543.167 1249,656.5C 1249.54,674.851 1250.37,693.184 1251.5,711.5C 1226.5,711.5 1201.5,711.5 1176.5,711.5C 1174.76,690.206 1173.59,668.873 1173,647.5C 1147.95,690.178 1110.78,715.011 1061.5,722C 1020.04,727.217 982.37,717.884 948.5,694C 921.752,670.018 905.252,640.185 899,604.5C 897.565,597.225 896.565,589.892 896,582.5C 895.5,493.834 895.333,405.167 895.5,316.5 Z"/></g>
<g><path style="opacity:0.991" fill="#fefffe" d="M 1443.5,727.5 C 1469.83,727.5 1496.17,727.5 1522.5,727.5C 1522.5,937.5 1522.5,1147.5 1522.5,1357.5C 1497.17,1357.5 1471.83,1357.5 1446.5,1357.5C 1446.67,1336.83 1446.5,1316.16 1446,1295.5C 1416.13,1338.27 1374.96,1362.44 1322.5,1368C 1257.02,1374.51 1201.52,1354.35 1156,1307.5C 1120.38,1264.67 1102.55,1215.17 1102.5,1159C 1102.41,1094.89 1125.41,1040.89 1171.5,997C 1221.81,956.839 1278.81,942.839 1342.5,955C 1384.03,965.224 1417.53,987.39 1443,1021.5C 1443.5,923.501 1443.67,825.501 1443.5,727.5 Z M 1297.5,1018.5 C 1367.05,1014.67 1414.55,1045 1440,1109.5C 1455.91,1159.5 1449.24,1206.16 1420,1249.5C 1382.76,1295.25 1335.26,1311.08 1277.5,1297C 1233.61,1281.44 1205.11,1251.27 1192,1206.5C 1179.18,1159.22 1185.18,1114.55 1210,1072.5C 1231.25,1041.63 1260.41,1023.63 1297.5,1018.5 Z"/></g>
<g><path style="opacity:0.984" fill="#fefffe" d="M 1654.5,769.5 C 1684.72,765.679 1705.55,777.679 1717,805.5C 1723.32,839.048 1710.15,860.548 1677.5,870C 1646.28,874.393 1625.45,861.893 1615,832.5C 1610.47,800.208 1623.63,779.208 1654.5,769.5 Z"/></g>
<g><path style="opacity:0.988" fill="#fefffe" d="M 10.5,962.5 C 39.4072,962.171 68.2405,962.505 97,963.5C 126.468,1063.57 156.135,1163.57 186,1263.5C 217.733,1163.63 249.067,1063.63 280,963.5C 308.093,962.505 336.259,962.172 364.5,962.5C 395.868,1062.97 427.701,1163.3 460,1263.5C 489.832,1163.51 519.666,1063.51 549.5,963.5C 577.494,962.333 605.494,962.167 633.5,963C 589.808,1093.74 546.308,1224.58 503,1355.5C 489.222,1356.82 475.222,1357.49 461,1357.5C 447.167,1357.17 433.333,1356.83 419.5,1356.5C 387.099,1258.13 354.599,1159.8 322,1061.5C 289.342,1159.97 257.175,1258.64 225.5,1357.5C 197.5,1357.5 169.5,1357.5 141.5,1357.5C 98.0349,1225.77 54.3682,1094.1 10.5,962.5 Z"/></g>
<g><path style="opacity:0.991" fill="#fefffe" d="M 674.5,962.5 C 700.833,962.5 727.167,962.5 753.5,962.5C 753.333,1041.17 753.5,1119.83 754,1198.5C 754.308,1223.06 760.308,1246.06 772,1267.5C 789.22,1291.52 812.72,1302.86 842.5,1301.5C 883,1301.01 912.833,1283.01 932,1247.5C 942.04,1226.67 947.374,1204.67 948,1181.5C 948.5,1108.5 948.667,1035.5 948.5,962.5C 974.833,962.5 1001.17,962.5 1027.5,962.5C 1027.33,1075.83 1027.5,1189.17 1028,1302.5C 1028.54,1320.85 1029.37,1339.18 1030.5,1357.5C 1005.5,1357.5 980.5,1357.5 955.5,1357.5C 953.756,1336.21 952.59,1314.87 952,1293.5C 926.949,1336.18 889.783,1361.01 840.5,1368C 799.037,1373.22 761.37,1363.88 727.5,1340C 700.752,1316.02 684.252,1286.18 678,1250.5C 676.565,1243.23 675.565,1235.89 675,1228.5C 674.5,1139.83 674.333,1051.17 674.5,962.5 Z"/></g>
<g><path style="opacity:0.994" fill="#fefffe" d="M 1626.5,962.5 C 1652.83,962.5 1679.17,962.5 1705.5,962.5C 1705.5,1094.17 1705.5,1225.83 1705.5,1357.5C 1679.17,1357.5 1652.83,1357.5 1626.5,1357.5C 1626.5,1225.83 1626.5,1094.17 1626.5,962.5 Z"/></g>
</svg>
